<svg width="340" height="346" viewBox="0 0 340 346" fill="none" xmlns="http://www.w3.org/2000/svg">
<path d="M228.21 283.591C228.21 296.215 245.56 306.448 266.962 306.448C282.588 306.448 296.042 300.998 302.175 293.14L302.411 293.206L310.545 295.434C310.39 295.678 310.305 295.959 310.301 296.248C310.301 296.329 310.301 296.419 310.301 296.516C310.215 296.886 310.21 297.27 310.286 297.642C310.362 298.014 310.517 298.365 310.74 298.672C311.246 299.131 311.838 299.485 312.482 299.714C313.125 299.943 313.808 300.042 314.49 300.006C316.67 300.006 318.378 298.883 318.403 297.915C318.403 296.288 318.362 295.874 318.191 295.613C317.81 295.133 317.295 294.777 316.711 294.588C315.898 293.65 314.751 293.066 313.514 292.961C312.701 292.734 307.91 291.489 303.924 290.448C305.083 288.347 305.698 285.99 305.713 283.591C305.713 270.966 288.363 260.733 266.962 260.733C245.56 260.733 228.21 270.942 228.21 283.591ZM287.338 292.88C287.33 293.034 287.263 293.179 287.151 293.285C287.039 293.391 286.89 293.45 286.736 293.45H286.695C286.615 293.444 286.537 293.423 286.465 293.388C286.393 293.352 286.328 293.303 286.275 293.242C286.223 293.182 286.182 293.112 286.156 293.036C286.131 292.959 286.12 292.879 286.126 292.799L286.264 290.773C286.661 290.876 287.067 290.939 287.476 290.96L287.338 292.88ZM316.451 296.776C316.683 296.584 316.858 296.331 316.955 296.044L317.15 296.191C317.238 296.728 317.26 297.275 317.215 297.818C316.861 298.165 316.435 298.432 315.967 298.599C315.5 298.766 315.001 298.83 314.507 298.786C313.447 298.849 312.405 298.496 311.603 297.801C311.448 297.647 311.505 296.898 311.529 296.622C311.529 296.508 311.529 296.402 311.529 296.305C311.529 296.207 311.529 296.028 311.952 295.833C312.064 296.198 312.275 296.525 312.563 296.777C312.85 297.028 313.202 297.194 313.579 297.256C313.891 297.327 314.211 297.363 314.531 297.362C315.219 297.394 315.898 297.187 316.451 296.776ZM286.134 289.374C286.165 288.7 286.457 288.064 286.948 287.601C287.395 287.324 288.07 287.536 288.729 287.739L289.209 287.886L290.518 288.227L303.436 291.595C309.252 293.1 312.725 294.035 313.197 294.149H313.311C313.882 294.209 314.435 294.383 314.938 294.662C315.228 294.802 315.477 295.015 315.662 295.28L315.71 295.377C315.718 295.42 315.718 295.464 315.71 295.508C315.715 295.566 315.703 295.625 315.678 295.678C315.652 295.731 315.613 295.776 315.564 295.808C315.298 295.965 315.003 296.066 314.696 296.103C314.39 296.141 314.079 296.116 313.783 296.028C313.6 296.01 313.427 295.935 313.289 295.814C313.15 295.693 313.053 295.532 313.01 295.353C312.939 295.091 312.77 294.867 312.538 294.727L311.993 294.556C309.919 293.946 302.736 292.01 302.655 291.985C300.751 291.465 291.226 288.886 290.453 288.732C290.315 288.721 290.177 288.721 290.039 288.732C289.787 288.725 289.537 288.783 289.313 288.899C289.09 289.016 288.9 289.188 288.762 289.399C288.703 289.483 288.635 289.559 288.558 289.626H288.347C287.893 289.687 287.434 289.687 286.98 289.626H286.85C286.566 289.593 286.29 289.507 286.036 289.374H286.134ZM280.692 296.126C280.764 296.268 280.777 296.434 280.728 296.586C280.68 296.738 280.573 296.865 280.432 296.939C277.593 298.428 272.753 299.2 267.783 299.2C263.981 299.253 260.193 298.741 256.542 297.679C256.387 297.631 256.259 297.523 256.184 297.38C256.109 297.236 256.095 297.069 256.143 296.915C256.193 296.76 256.303 296.631 256.447 296.557C256.592 296.482 256.76 296.467 256.916 296.516C263.822 298.737 274.982 298.42 279.863 295.857C280.005 295.795 280.166 295.788 280.313 295.838C280.46 295.887 280.584 295.99 280.66 296.126H280.692ZM262.52 294.165C262.544 294.006 262.631 293.862 262.76 293.766C262.89 293.67 263.052 293.63 263.212 293.653C266.142 294.17 269.146 294.109 272.054 293.474C272.132 293.455 272.213 293.451 272.292 293.463C272.371 293.475 272.448 293.503 272.516 293.544C272.585 293.586 272.645 293.641 272.693 293.705C272.74 293.77 272.775 293.843 272.794 293.921C272.813 293.999 272.817 294.08 272.805 294.16C272.793 294.239 272.765 294.315 272.723 294.384C272.682 294.453 272.627 294.513 272.563 294.56C272.498 294.608 272.424 294.642 272.347 294.662C270.748 295.04 269.109 295.226 267.466 295.215C265.979 295.204 264.495 295.087 263.025 294.865C262.866 294.837 262.724 294.748 262.63 294.618C262.536 294.487 262.497 294.325 262.52 294.165ZM278.87 281.061C278.87 284.941 273.542 288.089 266.962 288.089C260.381 288.089 255.053 284.941 255.053 281.061C255.053 277.181 260.381 274.033 266.962 274.033C273.542 274.033 278.87 277.173 278.87 281.053V281.061ZM246.333 268.9C249.448 267.078 252.84 265.907 255.33 265.777C255.491 265.774 255.648 265.833 255.767 265.942C255.886 266.051 255.96 266.201 255.972 266.362C255.975 266.442 255.963 266.522 255.935 266.598C255.908 266.673 255.865 266.742 255.811 266.801C255.756 266.86 255.691 266.908 255.618 266.941C255.545 266.975 255.467 266.994 255.386 266.997C253.093 267.119 249.855 268.249 246.943 269.958C246.852 270.011 246.748 270.039 246.642 270.039C246.507 270.04 246.376 269.996 246.269 269.915C246.161 269.834 246.084 269.719 246.049 269.589C246.013 269.459 246.022 269.321 246.073 269.196C246.125 269.071 246.216 268.967 246.333 268.9ZM244.478 274.643C247.732 271.528 253.817 268.306 259.934 268.136C260.095 268.133 260.25 268.194 260.367 268.305C260.484 268.416 260.554 268.568 260.56 268.729C260.563 268.81 260.55 268.89 260.522 268.965C260.494 269.041 260.451 269.11 260.395 269.168C260.34 269.226 260.273 269.273 260.2 269.305C260.126 269.338 260.047 269.355 259.966 269.356C254.199 269.51 248.334 272.658 245.324 275.522C245.214 275.631 245.065 275.692 244.909 275.692C244.786 275.694 244.665 275.658 244.563 275.59C244.46 275.521 244.381 275.423 244.335 275.309C244.289 275.194 244.279 275.069 244.306 274.948C244.333 274.828 244.396 274.719 244.487 274.635L244.478 274.643Z" fill="black"/>
<path d="M234.734 93.3298C234.602 93.2494 234.446 93.2214 234.295 93.2516C234.144 93.2818 234.01 93.3678 233.92 93.4925C232.71 95.295 231.597 97.1604 230.585 99.0807C230.519 99.2232 230.511 99.3854 230.562 99.5338C230.613 99.6821 230.719 99.8051 230.858 99.8774C230.997 99.9496 231.159 99.9654 231.31 99.9216C231.46 99.8778 231.588 99.7776 231.667 99.642C232.654 97.7664 233.74 95.9444 234.921 94.1839C234.965 94.1158 234.996 94.0395 235.011 93.9594C235.026 93.8793 235.025 93.7969 235.007 93.7173C234.99 93.6377 234.957 93.5624 234.91 93.4958C234.863 93.4293 234.803 93.3728 234.734 93.3298Z" fill="black"/>
<path d="M235.108 104.409C235.167 104.418 235.227 104.418 235.287 104.409C237.316 103.672 239.248 102.689 241.038 101.481C241.109 101.438 241.17 101.381 241.219 101.314C241.267 101.247 241.302 101.17 241.319 101.089C241.337 101.008 241.338 100.925 241.323 100.843C241.307 100.762 241.275 100.684 241.229 100.616C241.182 100.547 241.122 100.488 241.052 100.444C240.982 100.399 240.904 100.369 240.822 100.356C240.741 100.342 240.657 100.346 240.576 100.366C240.496 100.386 240.42 100.422 240.354 100.472C238.662 101.607 236.841 102.535 234.929 103.238C234.787 103.279 234.665 103.37 234.586 103.495C234.506 103.619 234.474 103.768 234.496 103.914C234.518 104.06 234.592 104.193 234.704 104.289C234.817 104.384 234.96 104.436 235.108 104.434V104.409Z" fill="black"/>
<path d="M239.175 112.421C240.33 112.56 243.6 113.072 243.632 113.08H243.73C243.883 113.08 244.03 113.022 244.143 112.918C244.255 112.814 244.324 112.672 244.336 112.519C244.349 112.367 244.303 112.215 244.209 112.095C244.115 111.974 243.979 111.893 243.828 111.868C243.689 111.868 240.501 111.348 239.321 111.209C239.242 111.199 239.161 111.205 239.083 111.227C239.006 111.248 238.933 111.285 238.87 111.335C238.807 111.385 238.755 111.448 238.717 111.518C238.678 111.589 238.654 111.666 238.646 111.746C238.628 111.906 238.673 112.066 238.772 112.192C238.871 112.319 239.016 112.401 239.175 112.421Z" fill="black"/>
<path d="M308.617 115.431C308.761 115.429 308.899 115.377 309.008 115.284C314.946 110.29 316.532 103.083 313.482 95.0135C313.418 94.8722 313.302 94.7607 313.159 94.7015C313.015 94.6423 312.855 94.6399 312.71 94.6948C312.565 94.7497 312.446 94.8578 312.378 94.9971C312.31 95.1364 312.297 95.2964 312.343 95.4446C315.247 103.107 313.823 109.647 308.227 114.349C308.132 114.429 308.065 114.537 308.033 114.657C308.002 114.777 308.008 114.904 308.05 115.021C308.092 115.138 308.169 115.239 308.271 115.31C308.372 115.382 308.493 115.421 308.617 115.422V115.431Z" fill="black"/>
<path d="M257.428 179.92C257.356 179.955 257.292 180.004 257.239 180.064C257.185 180.124 257.145 180.194 257.119 180.27C257.093 180.346 257.082 180.427 257.087 180.507C257.092 180.587 257.112 180.665 257.148 180.737C257.183 180.809 257.232 180.874 257.292 180.927C257.352 180.98 257.422 181.021 257.498 181.047C257.574 181.073 257.654 181.084 257.735 181.079C257.815 181.074 257.893 181.053 257.965 181.018C285.394 167.604 314.043 162.512 318.256 167.759C318.601 168.171 318.846 168.657 318.975 169.178C319.103 169.7 319.11 170.244 318.997 170.769C317.899 176.674 305.469 183.938 305.339 184.011C305.222 184.079 305.131 184.183 305.08 184.307C305.028 184.432 305.019 184.57 305.055 184.7C305.09 184.83 305.167 184.945 305.275 185.026C305.382 185.108 305.514 185.151 305.648 185.15C305.757 185.151 305.864 185.123 305.957 185.069C306.486 184.76 318.972 177.447 320.201 170.996C320.348 170.298 320.336 169.576 320.166 168.883C319.995 168.19 319.671 167.544 319.216 166.994C314.075 160.609 284.052 166.889 257.428 179.92Z" fill="black"/>
<path d="M339.804 229.27C338.08 227.749 332.304 222.893 330.246 224.308C329.091 225.122 329.034 227.993 329.034 232.646C329.034 235.257 329.034 239.617 328.351 239.967C327.668 240.317 325.439 238.112 324.016 236.713C321.868 234.574 320.493 233.28 319.346 233.459C317.72 233.712 317.931 236.55 318.444 241.195C318.631 242.879 318.891 245.189 318.704 245.62C318.33 245.742 316.166 244.807 310.692 239.04C310.643 238.965 310.579 238.902 310.504 238.855C310.429 238.808 310.345 238.778 310.257 238.766C310.169 238.755 310.079 238.763 309.995 238.79C309.91 238.817 309.833 238.862 309.767 238.922C309.702 238.982 309.651 239.056 309.617 239.137C309.582 239.219 309.567 239.308 309.57 239.396C309.574 239.485 309.597 239.572 309.637 239.65C309.678 239.729 309.735 239.798 309.805 239.853C314.214 244.473 317.199 246.816 318.688 246.816H318.883C319.072 246.788 319.252 246.713 319.405 246.598C319.559 246.482 319.681 246.331 319.761 246.157C320.111 245.425 319.957 243.822 319.647 241.049C319.412 238.974 318.98 235.102 319.525 234.655C320.127 234.557 321.966 236.371 323.145 237.567C325.358 239.772 327.277 241.634 328.766 241.122C330.255 240.609 330.246 237.705 330.238 232.63C330.238 229.897 330.238 225.764 330.922 225.309C331.735 224.723 335.802 227.351 338.983 230.189C339.103 230.297 339.262 230.353 339.424 230.344C339.586 230.334 339.737 230.261 339.845 230.141C339.953 230.02 340.008 229.861 339.999 229.699C339.99 229.538 339.917 229.386 339.796 229.278L339.804 229.27Z" fill="black"/>
<path d="M323.121 282.68C323.231 282.68 323.339 282.651 323.434 282.595C323.528 282.538 323.606 282.458 323.659 282.361C323.711 282.264 323.736 282.155 323.732 282.045C323.727 281.935 323.693 281.829 323.633 281.736C323.568 281.631 316.719 271.259 310.7 265.191C310.644 265.131 310.576 265.083 310.502 265.05C310.427 265.017 310.346 264.999 310.264 264.997C310.182 264.996 310.101 265.011 310.025 265.041C309.949 265.072 309.88 265.118 309.822 265.176C309.764 265.234 309.718 265.303 309.688 265.379C309.657 265.455 309.642 265.536 309.643 265.618C309.645 265.7 309.663 265.781 309.696 265.855C309.729 265.93 309.778 265.998 309.837 266.053C315.775 272.04 322.551 282.322 322.616 282.412C322.672 282.494 322.747 282.562 322.835 282.608C322.923 282.655 323.021 282.68 323.121 282.68Z" fill="black"/>
<path d="M324.439 276.075C324.378 276.022 324.307 275.981 324.23 275.955C324.153 275.929 324.072 275.918 323.992 275.923C323.911 275.928 323.832 275.95 323.759 275.985C323.686 276.021 323.622 276.071 323.568 276.132C323.515 276.193 323.474 276.264 323.448 276.34C323.422 276.417 323.411 276.498 323.416 276.579C323.422 276.66 323.443 276.739 323.479 276.811C323.514 276.884 323.564 276.949 323.625 277.002C325.594 278.702 329.433 284.478 329.474 284.535C329.529 284.62 329.605 284.69 329.695 284.738C329.784 284.786 329.884 284.811 329.986 284.811C330.104 284.812 330.22 284.778 330.32 284.714C330.446 284.625 330.533 284.491 330.565 284.34C330.597 284.19 330.57 284.032 330.49 283.9C330.344 283.591 326.529 277.897 324.439 276.075Z" fill="black"/>
<path d="M329.132 298.306V298.257C329.122 298.231 329.108 298.206 329.091 298.184C329.099 298.163 329.099 298.14 329.091 298.119C328.888 297.875 309.162 273.098 306.014 268.965C302.866 264.833 293.04 253.583 291.202 251.81C291.135 251.747 291.055 251.699 290.968 251.671C290.881 251.643 290.788 251.635 290.697 251.648C290.266 251.704 263.561 255.406 242.957 258.277C243.172 254.957 243.577 251.652 244.169 248.378C245.288 241.853 246.033 235.27 246.398 228.66C247.309 228.105 248.132 227.417 248.838 226.618C248.904 226.533 248.946 226.432 248.96 226.325C248.96 226.325 249.269 224.105 249.847 221.079C253.174 203.647 252.483 193.967 251.816 184.605L251.677 182.628C251.352 177.902 250.815 173.745 250.343 170.077C250.246 169.328 250.156 168.613 250.067 167.921C252.614 164.473 255.363 161.178 258.299 158.054C259.974 156.305 262.951 153.353 266.433 149.92C272.729 143.689 280.562 135.937 286.142 129.869C291.5 124.106 296.327 117.872 300.564 111.241C301.093 110.428 301.597 109.615 301.736 109.517C305.689 106.499 304.062 103.465 301.817 99.2596C301.321 98.3323 300.76 97.2748 300.19 96.1523C297.237 90.019 282.954 70.3015 277.471 63.2572C271.989 56.2129 265.977 48.3145 264.578 44.1091C266.154 41.7659 266.739 38.8942 266.205 36.1212C265.619 32.3713 264.489 30.6712 262.772 28.0926L262.211 27.2792C261.258 26.108 260.559 24.7503 260.161 23.2934C260.153 22.7287 260.175 22.1639 260.226 21.6015C260.3 20.3894 260.405 18.7219 260.365 17.1032C260.329 14.685 260.089 12.2742 259.649 9.8962C259.38 8.57031 258.673 6.91092 257.575 6.64248C257.329 6.57762 257.069 6.58705 256.829 6.66957C256.589 6.7521 256.378 6.90402 256.224 7.10614C255.411 8.05785 255.37 10.002 255.338 12.2389C255.338 12.7188 255.338 13.1987 255.338 13.6705C255.264 15.7062 255.011 17.7314 254.581 19.7224C254.467 19.5011 254.366 19.2729 254.28 19.0392C254.109 17.7553 254.089 16.4556 254.223 15.1672C254.28 14.7442 254.353 14.3538 254.427 13.8901C254.779 12.0124 254.961 10.1067 254.972 8.19614C254.972 6.08122 254.475 4.47063 253.516 3.78734C253.25 3.59482 252.932 3.48708 252.605 3.47824C252.437 3.08563 252.153 2.75362 251.791 2.52653C251.566 2.40311 251.308 2.35102 251.053 2.37717C250.797 2.40331 250.555 2.50646 250.359 2.67295C249.196 3.59213 246.667 8.36696 246.227 9.40815C245.707 10.6283 245.528 12.1575 245.487 16.0295C245.365 16.0693 245.25 16.1269 245.145 16.2003C244.927 16.3849 244.754 16.6174 244.639 16.8798C244.525 17.1422 244.473 17.4274 244.486 17.7133C244.312 17.3589 244.192 16.9806 244.129 16.5907L244.088 16.3467C243.48 12.6723 242.571 9.05395 241.371 5.52809C239.793 0.842735 238.117 0.0537073 237.304 0.0049015C237.028 -0.0184562 236.752 0.0420373 236.511 0.17847C236.27 0.314903 236.076 0.520912 235.954 0.769521C235.49 1.7375 235.555 2.24996 236.368 8.4971L236.564 10.002C237.377 16.2735 237.922 20.422 237.89 22.4312C237.89 22.7159 237.89 23.0087 237.89 23.2934C237.6 25.7265 238.268 28.1769 239.752 30.1262C242.697 34.3165 245.376 38.6878 247.773 43.2143C249.782 47.192 256.078 58.3116 258.697 62.8017C261.316 67.2918 269.272 82.6738 271.476 87.5055C271.915 88.4654 272.477 89.6611 273.103 90.9789C275.202 95.4853 279.114 103.864 279.008 105.002C278.87 106.279 273.567 111.103 268.881 115.349C267.564 116.545 266.221 117.79 264.904 118.985C258.347 125.037 250.595 129.454 247.244 130.813L245.747 131.398C241.684 132.848 237.872 134.923 234.449 137.548C232.008 139.386 226.908 143.242 224.85 141.9C223.712 141.086 221.027 128.576 222.41 120.515C222.865 120.66 223.34 120.734 223.817 120.734C224.272 120.733 224.724 120.667 225.159 120.539C226.049 120.288 226.854 119.799 227.486 119.124C228.149 118.419 228.627 117.561 228.877 116.626C229.065 115.811 229.139 114.973 229.096 114.137V113.966C228.936 110.386 228.071 106.873 226.55 103.628C226.534 103.577 226.513 103.527 226.485 103.481V103.441C225.923 102.268 225.163 101.201 224.24 100.285C223.552 99.6224 222.694 99.1622 221.762 98.9542C220.829 98.7462 219.858 98.7984 218.953 99.105C218.452 99.2742 217.978 99.5153 217.546 99.8209C213.007 91.1985 206.971 86.0576 199.699 84.5203C189.938 75.4586 166.999 71.5542 148.136 80.1603C128.678 89.0185 122.155 99.6826 124.075 119.416C124.185 120.616 124.048 121.826 123.672 122.971C123.295 124.115 122.688 125.17 121.886 126.07C118.535 130.089 111.849 132.781 103.552 133.464C89.9918 134.579 77.1884 135.636 71.8279 151.775C71.7867 151.896 71.785 152.028 71.823 152.151C71.861 152.273 71.9367 152.381 72.0394 152.458C72.143 152.535 72.2685 152.576 72.3973 152.576C72.5262 152.576 72.6516 152.535 72.7552 152.458C76.9644 149.68 81.9661 148.355 86.9984 148.684C92.2694 148.928 94.0264 150.506 94.0508 150.937C94.0752 151.368 92.0742 151.441 90.7971 151.539C86.7299 151.856 79.9215 152.352 74.74 157.835C74.6475 157.933 74.5901 158.059 74.5769 158.193C74.5637 158.327 74.5954 158.462 74.667 158.577C74.7385 158.691 74.846 158.778 74.9726 158.825C75.0991 158.872 75.2376 158.876 75.3663 158.835C75.8218 158.689 80.0354 157.534 88.9994 161.682C96.8002 165.302 102.738 167.742 110.149 167.742C112.656 167.728 115.156 167.478 117.616 166.994C127.881 165.05 136.699 157.916 141.205 147.903C142.97 144.006 144.622 139.63 146.216 135.392C147.981 130.723 149.803 125.899 151.739 121.816C154.895 115.178 162.607 104.588 170.294 103.441C169.798 109.233 170.924 115.05 173.547 120.238C172.824 120.994 172.407 121.991 172.376 123.036C172.173 126.184 173.36 129.389 176.492 134.091C178.859 137.645 181.015 138.524 182.576 138.524C183.365 138.524 184.136 138.295 184.797 137.865C185.254 137.556 185.658 137.174 185.993 136.734C187.397 138.553 188.927 140.271 190.572 141.875C193.175 144.315 196.445 147.049 200.171 148.594C198.162 149.408 195.624 150.221 192.956 151.034C188.384 152.45 183.658 153.922 180.754 155.76C174.911 159.306 169.938 164.118 166.202 169.841C163.72 173.56 161.455 177.419 159.418 181.4C158.426 183.279 157.482 185.06 156.49 186.679C153.797 191.088 149.714 196.652 143.8 204.631C140.433 209.162 138.277 212.278 136.699 214.555C135.552 216.182 134.787 217.313 134.185 218.053C132.819 219.908 131.071 221.45 129.061 222.576L128.735 222.73C126.564 223.755 121.48 226.163 108.741 237.429C103.657 241.935 100.192 245.14 97.4103 247.711C93.6034 251.233 91.0818 253.559 87.34 256.528L87.2587 256.577C84.1676 255.763 82.3211 255.186 82.3049 255.186C82.2181 255.159 82.1264 255.151 82.0363 255.164C81.9462 255.176 81.8601 255.209 81.7843 255.259C68.8833 263.922 23.5427 290.107 22.8025 290.538C22.7266 290.577 22.66 290.633 22.6073 290.7C22.6063 290.719 22.6063 290.738 22.6073 290.757V290.814C22.5711 290.891 22.5517 290.974 22.5503 291.058C22.5503 291.058 22.5503 291.058 22.5503 291.058C22.6556 296.554 23.4258 302.016 24.8442 307.327C24.8836 307.463 24.9701 307.581 25.0882 307.66C55.7301 327.947 95.5069 337.44 150.267 337.521H151.316C222.321 337.521 294.797 325.117 326.545 317.755C326.663 317.728 326.77 317.666 326.853 317.577C326.935 317.489 326.99 317.378 327.009 317.259C327.448 314.534 328.953 303.536 329.295 298.477C329.299 298.436 329.299 298.395 329.295 298.355C329.248 298.319 329.19 298.302 329.132 298.306ZM290.494 252.86C292.69 255.096 301.947 265.712 304.973 269.673C307.853 273.456 324.544 294.418 327.595 298.249C309.236 306.717 236.49 315.599 228.983 316.502C228.616 312.996 226.729 295.5 224.297 284.6C222.125 274.887 220.596 265.134 220.23 262.637L225.184 261.929L227.315 261.628L242.396 259.522L290.494 252.86ZM186.302 201.052C186.505 201.613 186.717 202.167 186.928 202.679C188.93 207.519 190.065 212.673 190.28 217.906C190.665 222.858 189.596 227.814 187.205 232.166C187.158 232.239 187.128 232.321 187.116 232.406C187.103 232.492 187.109 232.579 187.133 232.662C187.157 232.745 187.198 232.822 187.254 232.888C187.31 232.954 187.379 233.007 187.457 233.044C188.157 233.378 188.848 233.679 189.523 233.98C188.856 235.054 186.969 237.722 182.471 241.813C181.006 243.147 178.761 244.904 176.158 246.938C169.114 252.453 159.499 259.953 154.066 267.762C150.055 267.762 145.931 267.705 141.693 267.599L141.547 265.5C141.547 265.5 141.547 265.5 141.547 265.451C141.549 265.422 141.549 265.392 141.547 265.362C141.55 265.335 141.55 265.308 141.547 265.281V265.232C141.53 265.199 141.504 265.171 141.474 265.15L141.417 265.102H141.344H141.246H141.197C141.16 265.093 141.121 265.093 141.083 265.102C128.459 265.102 114.631 262.848 104.812 260.847C107.822 258.83 112.052 256.544 117.779 253.453L121.488 251.452C137.455 242.797 143.198 239.446 145.736 236.648C147.426 234.626 149.012 232.519 150.487 230.336C151.664 228.564 152.946 226.863 154.326 225.244C156.287 223.083 158.123 220.813 159.825 218.443C160.76 217.215 161.834 215.816 163.078 214.197C165.299 211.318 168.154 207.69 171.213 203.785C174.751 199.271 178.403 194.594 181.73 190.291C182.902 188.769 183.829 187.533 184.577 186.5C183.92 191.419 184.513 196.423 186.302 201.052ZM213.031 260.351L214.658 253.844C218.318 254.242 222.036 254.568 225.761 254.657L224.533 260.815L223.671 260.945C220.103 261.085 216.529 260.887 212.999 260.351H213.031ZM218.929 262.141L218.652 263.548C195.876 266.159 177.167 267.753 155.562 267.802C160.972 260.416 170.131 253.242 176.907 247.938C178.412 246.759 179.794 245.677 180.974 244.685C190.828 255.268 204.456 261.54 218.904 262.141H218.929ZM211.819 260.156C207.952 259.493 204.171 258.402 200.545 256.902L202.489 251.371C205.983 252.533 209.591 253.321 213.251 253.722H213.43L211.819 260.156ZM199.423 256.382C196.587 255.124 193.866 253.625 191.288 251.9L193.362 246.824C195.833 248.513 198.509 249.88 201.326 250.891L199.423 256.382ZM190.271 251.192L189.824 250.875L192.069 245.84L192.37 246.067L190.271 251.192ZM188.815 250.135C186.342 248.274 184.036 246.2 181.926 243.936C182.422 243.521 182.885 243.123 183.284 242.757C184.529 241.626 185.57 240.601 186.456 239.682C187.733 241.68 189.295 243.48 191.093 245.026L188.815 250.135ZM140.498 268.282C140.508 268.434 140.574 268.577 140.684 268.682C140.794 268.787 140.939 268.848 141.091 268.852C145.671 268.974 150.039 269.039 154.35 269.039H154.48C176.768 269.039 195.827 267.412 219.23 264.719H219.327C219.953 268.656 221.328 276.791 223.142 284.901C224.484 290.912 225.656 298.957 226.502 305.521C227.348 312.085 227.852 317.161 227.86 317.251L227.909 318.137C194.273 321.749 156.693 324.702 100.794 318.341L100.721 317.356C127.222 288.764 137.48 272.829 140.465 267.737L140.498 268.282ZM225.851 260.636L226.99 254.714H227.535L226.681 260.514L225.867 260.628L225.851 260.636ZM227.933 260.343L228.747 254.747C233.243 254.791 237.731 254.338 242.128 253.396C241.895 255.061 241.745 256.736 241.68 258.415L227.925 260.343H227.933ZM242.925 248.142C242.705 249.524 242.502 250.834 242.315 252.087C233.074 254.267 222.955 253.559 213.381 252.461C201.098 251.046 191.866 246.181 187.311 238.755C188.56 237.449 189.675 236.021 190.637 234.492C196.315 236.984 202.455 238.248 208.655 238.202C212.422 238.159 216.183 237.871 219.913 237.339C230.26 235.973 239.842 232.459 245.088 229.384C244.697 235.674 243.967 241.938 242.9 248.15L242.925 248.142ZM250.335 181.318C250.335 181.766 250.408 182.205 250.441 182.661L250.579 184.645C251.246 193.927 251.929 203.525 248.627 220.802C248.139 223.373 247.813 225.357 247.756 225.935C245.194 228.912 232.96 234.403 219.766 236.135C206.288 237.909 198.886 237.006 188.571 232.247C190.851 227.808 191.859 222.825 191.483 217.85C191.26 212.487 190.093 207.205 188.034 202.248C187.831 201.703 187.62 201.158 187.416 200.621C185.301 195.34 184.811 189.548 186.009 183.986C186.826 182.719 187.557 181.399 188.197 180.033C188.628 179.147 189.124 178.146 189.824 176.779C192.264 172.306 195.282 167.653 198.772 162.26L200.334 159.86C201.087 160.99 202.035 161.979 203.132 162.78C204.676 163.891 206.533 164.483 208.435 164.472C209.656 164.462 210.867 164.256 212.023 163.862C219.262 161.479 224.175 157.2 226.363 151.661C238.361 163.626 245.755 172.81 250.311 181.327L250.335 181.318ZM252.515 8.79807C252.767 8.07451 252.946 7.328 253.052 6.56928C253.111 6.02859 253.111 5.48311 253.052 4.94242C253.627 5.89182 253.878 7.00223 253.768 8.10666C253.762 9.95161 253.588 11.7922 253.247 13.6054C253.166 14.0691 253.093 14.4921 253.036 14.9313C252.874 16.4104 252.915 17.9047 253.158 19.3727C253.373 19.9412 253.645 20.4863 253.971 20.9995H251.864C251.585 19.0649 251.435 17.1137 251.417 15.1591C251.457 12.9999 251.819 10.8588 252.491 8.80621L252.515 8.79807ZM247.309 9.85554C247.854 8.57845 250.27 4.23474 251.075 3.60026C251.099 3.57929 251.127 3.56277 251.157 3.55146C251.393 3.59213 251.97 4.66585 251.84 6.47167C251.737 7.14385 251.574 7.8054 251.352 8.4483C250.618 10.637 250.22 12.9244 250.172 15.2323C250.177 16.7329 250.266 18.232 250.441 19.7224C249.805 18.4101 248.82 17.2983 247.594 16.5094C247.305 16.3269 246.997 16.1769 246.675 16.062C246.683 12.3853 246.837 10.8967 247.309 9.85554ZM227.632 143.071C229.934 142.339 232.651 140.427 235.173 138.532C238.51 135.975 242.226 133.955 246.187 132.545L247.7 131.951C251.124 130.56 259.088 126.054 265.725 119.888C267.043 118.676 268.385 117.448 269.695 116.26C276.292 110.265 280.033 106.8 280.212 105.141C280.342 103.921 278.293 99.2433 274.201 90.499C273.591 89.1812 273.03 87.9936 272.574 87.0338C270.297 82.0474 262.236 66.698 259.608 62.1916C256.981 57.6852 250.717 46.6307 248.716 42.6693C246.285 38.0862 243.569 33.6606 240.582 29.4185C239.926 28.5634 239.444 27.5874 239.165 26.5463C238.886 25.5051 238.815 24.4191 238.955 23.3503C238.955 23.0494 238.955 22.7484 238.955 22.4474C238.955 20.3488 238.443 16.1677 237.621 9.83926L237.426 8.33442C236.661 2.47773 236.612 1.91646 236.905 1.29012C236.905 1.23318 237.003 1.21691 237.084 1.21691C237.629 1.21691 238.874 2.27437 240.102 5.91853C241.281 9.38331 242.174 12.9391 242.77 16.5501L242.811 16.8022C243.022 18.063 243.494 18.7545 244.747 20.6009L244.869 20.788L245.064 21.512C244.007 21.6177 243.096 21.7316 242.429 21.8536C242.277 21.8786 242.14 21.9599 242.046 22.0814C241.951 22.2028 241.906 22.3554 241.92 22.5086C241.933 22.6618 242.004 22.8043 242.118 22.9076C242.232 23.0109 242.381 23.0673 242.534 23.0656H242.648C243.331 22.9436 244.275 22.8216 245.381 22.7159C245.982 24.7462 246.417 26.8218 246.683 28.9223C246.697 29.082 246.773 29.2298 246.895 29.3345C247.016 29.4392 247.173 29.4927 247.333 29.4836C247.414 29.4774 247.492 29.4555 247.564 29.419C247.635 29.3825 247.699 29.3322 247.751 29.2709C247.803 29.2097 247.843 29.1387 247.868 29.0622C247.892 28.9856 247.901 28.9049 247.895 28.8247C247.606 26.5611 247.133 24.3249 246.479 22.1383L246.414 21.8943C246.178 21.0809 245.967 20.2674 245.796 19.5109C245.406 17.8841 245.617 17.2821 245.731 17.2008C245.845 17.1195 246.122 17.1357 246.862 17.5912C248.369 18.6592 249.468 20.2083 249.977 21.9838C250.026 22.1302 250.075 22.2766 250.124 22.4312C250.752 24.2272 251.86 25.8167 253.328 27.027C258.616 30.9396 260.885 35.5924 260.072 40.8553C260.059 40.935 260.062 41.0163 260.081 41.0947C260.1 41.1731 260.134 41.247 260.182 41.312C260.23 41.3771 260.29 41.432 260.359 41.4737C260.428 41.5154 260.505 41.543 260.584 41.5549H260.682C260.827 41.5548 260.967 41.5032 261.077 41.4093C261.187 41.3155 261.261 41.1854 261.284 41.0424C262.179 35.2915 259.746 30.2401 254.069 26.0347C252.896 25.0421 251.986 23.7767 251.417 22.3498C252.71 22.3498 253.947 22.301 255.02 22.3091C255.883 22.3091 256.647 22.3091 257.249 22.3742C257.411 22.3742 257.566 22.3099 257.681 22.1955C257.795 22.0811 257.859 21.9259 257.859 21.7641C257.859 21.6023 257.795 21.4472 257.681 21.3328C257.566 21.2183 257.411 21.1541 257.249 21.1541C256.696 21.1541 256.029 21.0971 255.289 21.089C255.944 18.679 256.31 16.1996 256.379 13.7031C256.379 13.2231 256.379 12.7351 256.379 12.247C256.379 10.4981 256.428 8.51337 256.965 7.89517C256.992 7.85753 257.029 7.82689 257.07 7.80569C257.282 7.80569 257.965 8.61912 258.274 10.1402C258.703 12.451 258.937 14.7938 258.974 17.1439C259.014 18.7057 258.917 20.3406 258.844 21.5364C258.761 22.2226 258.761 22.9163 258.844 23.6025C259.248 25.184 259.973 26.6654 260.975 27.9543L261.536 28.7678C263.22 31.2975 264.237 32.8349 264.79 36.3001C265.506 40.9448 263.342 43.4664 263.252 43.5722C263.183 43.6495 263.135 43.7431 263.112 43.8441C263.09 43.9452 263.093 44.0503 263.122 44.1497C264.383 48.4772 270.589 56.6603 276.316 63.9974C281.782 71.001 295.977 90.6128 298.905 96.6648C299.458 97.8198 300.027 98.8773 300.532 99.8209C302.972 104.319 303.786 106.239 300.784 108.533C300.215 109.147 299.726 109.83 299.328 110.566C295.168 117.136 290.425 123.319 285.158 129.039C279.594 135.083 271.769 142.868 265.489 149.05C262.032 152.466 259.055 155.419 257.355 157.184C254.676 160.028 252.154 163.015 249.798 166.132C249.416 162.821 249.245 160.169 249.644 158.428C249.665 158.349 249.67 158.267 249.659 158.186C249.648 158.104 249.62 158.026 249.578 157.956C249.536 157.886 249.48 157.825 249.414 157.776C249.348 157.728 249.273 157.694 249.193 157.675C249.113 157.656 249.031 157.654 248.95 157.668C248.869 157.682 248.792 157.713 248.723 157.757C248.655 157.802 248.595 157.859 248.549 157.927C248.504 157.995 248.472 158.072 248.456 158.152C247.854 160.747 248.367 164.716 249.074 170.199C249.4 172.688 249.749 175.413 250.042 178.382C245.308 170.313 238.028 161.544 226.851 150.376C227.564 148.01 227.829 145.533 227.632 143.071ZM225.436 104.124C226.894 107.21 227.724 110.556 227.876 113.966C227.771 114.406 227.543 114.715 227.307 114.731C226.77 114.731 225.493 113.649 224.053 109.322C222.792 105.409 223.37 103.254 223.964 102.977C224.265 102.863 224.818 103.164 225.428 104.124H225.436ZM219.303 100.26C219.717 100.122 220.151 100.051 220.588 100.049C221.626 100.057 222.621 100.461 223.37 101.179C223.559 101.36 223.738 101.55 223.907 101.749C223.76 101.771 223.618 101.815 223.484 101.879C221.914 102.619 221.686 105.84 222.931 109.704C224.257 113.771 225.753 115.959 227.282 115.959H227.364C227.508 115.95 227.651 115.92 227.787 115.87C227.754 116.033 227.722 116.179 227.689 116.309C227.513 117.024 227.155 117.682 226.651 118.219C226.146 118.756 225.512 119.154 224.81 119.376C223.972 119.622 223.073 119.556 222.28 119.189L222.166 119.132C221.855 118.971 221.567 118.769 221.312 118.53C221.1 118.328 220.909 118.104 220.742 117.863C218.798 115.203 216.594 108.459 216.448 104.75C216.425 104.345 216.444 103.939 216.505 103.538C216.631 102.791 216.957 102.092 217.448 101.515C217.939 100.938 218.577 100.504 219.295 100.26H219.303ZM171.497 102.831C171.885 99.6607 173.109 96.651 175.044 94.1106C176.581 92.1723 178.496 90.5671 180.673 89.3927C187.123 85.8136 193.541 84.5121 199.235 85.6753C206.312 87.0988 212.136 92.1421 216.545 100.642C215.881 101.398 215.436 102.32 215.26 103.31C215.26 103.31 215.26 103.392 215.26 103.433C212.901 98.0801 207.768 90.1085 197.804 88.3922C182.511 85.7648 171.522 97.5677 173.775 110.355C174.304 113.325 175.076 116.247 176.085 119.091C175.521 119.138 174.97 119.287 174.458 119.53C171.87 114.37 170.841 108.567 171.497 102.831ZM184.032 136.848C183.129 137.442 180.657 138.304 177.411 133.416C173.726 127.884 173.344 125.102 173.49 123.117C173.483 122.744 173.551 122.373 173.69 122.026C173.83 121.68 174.038 121.365 174.303 121.101C174.567 120.838 174.882 120.63 175.229 120.492C175.576 120.353 175.948 120.286 176.321 120.295C176.443 120.295 176.59 120.295 176.72 120.295C177.314 122.255 178.076 124.16 178.997 125.989C180.739 129.421 182.789 132.689 185.122 135.75C184.831 136.181 184.461 136.553 184.032 136.848ZM201.757 149.196C203.13 149.623 204.558 149.845 205.995 149.855C208.408 149.839 210.775 149.2 212.868 148C220.938 143.543 220.263 132.317 219.945 126.924C219.936 126.763 219.862 126.611 219.741 126.504C219.619 126.396 219.46 126.341 219.299 126.351C219.137 126.361 218.986 126.434 218.878 126.555C218.77 126.677 218.715 126.836 218.725 126.998C219.034 132.138 219.669 142.851 212.283 146.935C205.971 150.424 199.268 148.562 191.329 140.989C189.546 139.245 187.898 137.369 186.399 135.376L186.359 135.319C183.972 132.219 181.88 128.902 180.112 125.411C178.127 121.401 177.118 117.936 177.118 115.113C177.102 110.737 178.606 106.49 181.372 103.099C181.869 105.409 183.674 110.086 190.32 112.388C199 115.406 207.752 112.616 212.104 110.216C213.006 112.982 214.721 115.411 217.025 117.188C217.703 117.706 218.531 117.991 219.384 118.001C219.514 118.213 219.644 118.408 219.775 118.587C219.993 118.88 220.238 119.152 220.507 119.4C220.757 119.625 221.03 119.824 221.32 119.994C219.88 127.86 222.272 141.664 224.265 142.925C224.766 143.231 225.345 143.386 225.932 143.372C226.128 143.371 226.324 143.357 226.518 143.331C226.868 148.911 225.233 158.266 211.77 162.699C208.818 163.675 206.198 163.366 203.97 161.78C200.952 159.632 198.934 155.207 198.755 150.392C199.813 150.026 200.854 149.619 201.757 149.196ZM87.0634 258.065C87.414 257.914 87.7445 257.72 88.0477 257.488C91.8301 254.486 94.3599 252.144 98.1912 248.605C100.965 246.035 104.422 242.838 109.498 238.34C122.106 227.188 127.084 224.829 129.207 223.828L129.541 223.674C131.717 222.464 133.606 220.799 135.08 218.793C135.715 217.98 136.487 216.898 137.651 215.214C139.221 212.945 141.368 209.837 144.727 205.323C150.666 197.31 154.757 191.73 157.482 187.281C158.491 185.654 159.442 183.84 160.443 181.937C162.453 178.007 164.689 174.197 167.137 170.524C170.781 164.94 175.632 160.245 181.332 156.785C184.081 155.036 188.734 153.589 193.224 152.198C194.696 151.742 196.128 151.295 197.47 150.847C197.612 153.604 198.368 156.294 199.683 158.721L197.804 161.576C194.273 166.986 191.231 171.663 188.783 176.218C188.026 177.609 187.53 178.658 187.099 179.521C186.831 180.074 186.587 180.57 186.286 181.074C186.296 179.135 186.059 177.202 185.578 175.323C185.535 175.167 185.431 175.034 185.29 174.954C185.149 174.874 184.982 174.853 184.826 174.896C184.669 174.94 184.536 175.043 184.456 175.184C184.376 175.325 184.355 175.492 184.398 175.649C185.07 178.226 185.214 180.913 184.821 183.547C183.927 184.914 182.65 186.679 180.543 189.404C177.224 193.707 173.564 198.352 170.033 202.891C166.983 206.787 164.128 210.431 161.899 213.311C160.646 214.937 159.573 216.337 158.645 217.565C156.974 219.89 155.174 222.12 153.252 224.243C151.819 225.911 150.491 227.666 149.275 229.498C147.827 231.641 146.271 233.71 144.614 235.696C142.059 238.519 135.357 242.301 120.691 250.248L116.981 252.249C110.531 255.731 105.927 258.212 102.795 260.49L102.714 260.546C100.168 262.409 98.6467 264.134 97.8333 266.135V266.07C97.8059 265.991 97.7627 265.918 97.7063 265.857C97.6499 265.796 97.5815 265.746 97.5054 265.712C97.4292 265.678 97.3469 265.66 97.2635 265.66C97.1801 265.659 97.0974 265.675 97.0205 265.707C96.9436 265.739 96.8742 265.787 96.8165 265.847C96.7588 265.908 96.714 265.979 96.6849 266.057C96.6559 266.135 96.6432 266.219 96.6477 266.302C96.6521 266.385 96.6735 266.467 96.7107 266.541C96.9385 267.103 97.272 267.843 97.638 268.681C98.7753 271.09 99.7694 273.565 100.615 276.091C100.916 277.905 101.017 279.746 100.916 281.582C100.916 283.811 100.867 285.917 101.266 287.121C101.58 288.021 101.961 288.897 102.405 289.74C102.766 290.317 103.012 290.958 103.129 291.628C103.129 291.75 102.885 291.798 102.771 291.807C102.142 291.784 101.529 291.601 100.99 291.277C100.451 290.953 100.003 290.497 99.6879 289.952C98.4694 287.984 97.6229 285.808 97.1907 283.534C97.094 283.062 96.9635 282.597 96.8002 282.143C96.4423 281.142 95.6939 279.434 94.6853 279.28L93.9532 279.15C93.0584 278.995 92.5216 278.897 92.0498 279.239C91.578 279.581 87.8199 284.404 87.6085 285.446C87.5515 285.738 87.4783 286.527 87.3807 287.78L87.3238 288.512C87.1936 290.139 87.0146 292.286 86.9007 292.726C86.5015 294.002 85.6281 295.076 84.4605 295.727C84.1937 295.888 83.8863 295.969 83.5748 295.961C83.2633 295.952 82.9609 295.854 82.7035 295.678C82.9248 294.761 83.3196 293.894 83.8667 293.124C84.127 292.718 84.2571 291.823 84.127 288.463V288.244V287.78C84.127 287.544 84.127 287.308 84.127 287.081V286.82C84.127 286.047 84.0619 285.193 84.127 285.006C84.3608 284.362 84.6751 283.75 85.0624 283.184C86.0812 281.626 86.8446 279.915 87.3238 278.117C87.344 278.04 87.349 277.959 87.3383 277.881C87.3276 277.802 87.3015 277.726 87.2615 277.657C87.2215 277.588 87.1683 277.528 87.105 277.48C87.0417 277.432 86.9695 277.397 86.8926 277.376C86.8157 277.356 86.7356 277.351 86.6567 277.362C86.5779 277.372 86.502 277.399 86.4332 277.439C86.3645 277.479 86.3043 277.532 86.2561 277.595C86.2079 277.658 86.1727 277.731 86.1524 277.807C85.6968 279.491 84.9775 281.091 84.0212 282.55C83.572 283.2 83.2135 283.909 82.9556 284.656C82.8681 285.389 82.8681 286.129 82.9556 286.861V287.081C82.8336 287.593 82.7279 288.048 82.6465 288.439L82.557 288.829C82.41 289.814 82.108 290.77 81.6623 291.66L81.4426 292.075C80.9627 292.986 79.4985 295.752 79.0024 296.053C78.1889 296.329 75.9845 296.63 75.4314 296.158C75.3966 296.133 75.3732 296.095 75.3663 296.053C75.2687 295.646 75.9113 294.597 76.7085 293.848C77.2047 293.376 78.0425 291.449 79.1488 288.154C79.6531 286.698 80.0923 285.348 80.1656 285.063C80.5271 282.966 80.6823 280.838 80.6292 278.71C80.6209 278.55 80.5512 278.399 80.4346 278.288C80.3181 278.178 80.1635 278.116 80.0029 278.117C79.9228 278.119 79.8438 278.137 79.7706 278.169C79.6974 278.202 79.6313 278.248 79.5762 278.307C79.521 278.365 79.4779 278.433 79.4492 278.508C79.4206 278.583 79.4069 278.663 79.4091 278.743C79.4613 280.755 79.3224 282.768 78.9942 284.754C78.9373 284.982 78.5306 286.251 78.0018 287.764C76.7329 291.481 76.0496 292.799 75.8544 292.994C75.6592 293.189 74.2275 294.532 74.1218 295.825C73.6084 296.041 73.0456 296.111 72.4949 296.028C72.4641 296.02 72.4357 296.004 72.4118 295.983C72.3878 295.962 72.369 295.936 72.3566 295.906C71.9499 294.938 73.2514 292.709 73.8859 291.636C74.1136 291.237 74.3007 290.928 74.3983 290.708C74.6098 290.229 75.0653 288.756 75.8706 285.934L76.0089 285.462C76.2448 284.648 76.4482 283.941 76.5539 283.607C76.7041 283.122 76.8077 282.624 76.863 282.119C76.863 281.801 76.9362 281.468 76.9688 281.11L77.0501 280.297C77.0501 279.963 77.1233 279.605 77.1803 279.231C77.1921 279.077 77.1452 278.924 77.049 278.804C76.9528 278.683 76.8144 278.603 76.6617 278.581C76.509 278.558 76.3534 278.594 76.2263 278.681C76.0991 278.769 76.0098 278.901 75.9764 279.052C75.9195 279.451 75.8788 279.865 75.8462 280.174L75.7649 280.988C75.7649 281.289 75.708 281.565 75.6754 281.801C75.4395 282.143 74.862 282.965 74.195 283.981C73.528 284.998 72.2997 286.78 71.3724 288.333C70.559 289.74 69.5747 290.529 69.0866 290.554C69.0585 290.561 69.0288 290.558 69.0022 290.547C68.9757 290.535 68.9539 290.514 68.9402 290.489C68.2488 289.561 69.8187 285.234 70.8274 283.754L71.0796 283.379C72.4357 281.47 73.6405 279.457 74.683 277.36C75.3989 275.855 78.3516 271.446 80.7187 267.9C82.9231 264.605 84.1758 262.718 84.371 262.206C85.5342 258.765 86.25 258.423 87.0634 258.065ZM95.8485 283.07C94.6283 284.957 91.9928 286.682 88.6496 287.642C88.7635 286.178 88.8204 285.771 88.8367 285.681C89.0482 284.957 92.3833 280.606 92.7819 280.223C93.1134 280.228 93.4435 280.269 93.7661 280.345L94.4982 280.467C95.0735 281.038 95.4815 281.755 95.6777 282.542C95.7021 282.712 95.759 282.891 95.8078 283.07H95.8485ZM64.9381 296.402C64.8778 296.347 64.8292 296.28 64.7953 296.206C64.7613 296.131 64.7427 296.051 64.7406 295.969C64.7384 295.887 64.7527 295.806 64.7827 295.729C64.8126 295.653 64.8576 295.584 64.915 295.525C64.9723 295.467 65.0408 295.421 65.1164 295.389C65.192 295.358 65.2732 295.342 65.355 295.343C65.4369 295.343 65.5178 295.36 65.5929 295.393C65.668 295.425 65.7358 295.473 65.7923 295.532C67.8746 297.566 72.6495 299.404 79.8076 298.469C79.8872 298.458 79.968 298.464 80.0455 298.485C80.1229 298.506 80.1953 298.542 80.2588 298.591C80.3222 298.641 80.3754 298.702 80.4152 298.771C80.4551 298.841 80.4808 298.918 80.4909 298.997C80.5011 299.077 80.4955 299.158 80.4744 299.235C80.4533 299.312 80.4172 299.385 80.3681 299.448C80.319 299.512 80.2579 299.565 80.1882 299.605C80.1186 299.645 80.0418 299.67 79.9622 299.681C78.6893 299.849 77.4067 299.933 76.1228 299.933C70.5752 299.933 66.7684 298.233 64.8893 296.402H64.9381ZM75.9032 301.592C75.9099 301.753 75.8532 301.911 75.7453 302.031C75.6374 302.151 75.4868 302.224 75.3257 302.235H74.5122C71.6783 302.201 68.892 301.501 66.3779 300.193C66.2368 300.118 66.13 299.992 66.08 299.84C66.03 299.689 66.0405 299.524 66.1095 299.38C66.184 299.238 66.311 299.132 66.4631 299.083C66.6151 299.035 66.7802 299.048 66.9229 299.119C69.5019 300.463 72.3871 301.111 75.2931 300.998C75.4429 301.012 75.5825 301.08 75.6858 301.189C75.7892 301.299 75.8491 301.442 75.8544 301.592H75.9032ZM41.2348 289.391H41.1535C41.0397 289.431 40.9406 289.505 40.8688 289.602C40.775 289.721 40.7108 289.86 40.6817 290.009C40.6329 290.188 40.5597 290.473 39.5348 290.619C38.8759 290.717 38.6318 290.619 38.5668 290.538C38.5017 290.456 38.4366 290.294 38.4203 290.09C38.8748 289.776 39.3567 289.504 39.8601 289.277L40.3644 289.017C40.6735 288.886 43.6182 288.081 50.8252 286.226C56.8527 284.673 63.1486 283.078 63.4414 282.973C63.6144 282.966 63.7866 282.999 63.9446 283.069C64.1027 283.14 64.2423 283.246 64.3525 283.379C64.632 283.622 64.8069 283.963 64.8405 284.331C64.7999 284.494 64.3199 284.73 63.7424 284.868C63.3981 284.962 63.0419 285.006 62.685 284.998C62.5955 284.998 62.5141 284.876 62.3596 284.616C62.205 284.356 61.7983 283.656 61.0418 283.867C60.1552 284.103 54.9492 285.494 50.1012 286.836C43.545 288.65 41.7473 289.171 41.186 289.366L41.2348 289.391ZM41.9181 292.417C41.2399 292.863 40.4341 293.074 39.6242 293.019C38.7634 293.123 37.8942 292.906 37.1839 292.408C36.9968 292.238 37.005 291.912 37.0456 291.473C37.0456 291.335 37.0456 291.213 37.0456 291.099C37.0456 290.985 37.1107 290.961 37.2409 290.871C37.3331 291.135 37.4998 291.367 37.7208 291.538C38.091 291.805 38.5419 291.938 38.9979 291.912C39.2076 291.911 39.4169 291.895 39.6242 291.863C40.8037 291.693 41.3243 291.294 41.5765 290.814C41.6336 290.85 41.6856 290.894 41.731 290.944C41.8457 291.418 41.8923 291.905 41.8693 292.392L41.9181 292.417ZM64.5152 285.966L64.7673 287.333C64.7814 287.412 64.7797 287.493 64.7623 287.571C64.7449 287.65 64.7123 287.724 64.6662 287.79C64.6201 287.855 64.5615 287.911 64.4937 287.954C64.4259 287.997 64.3503 288.027 64.2712 288.04H64.1654C64.0222 288.039 63.8839 287.988 63.7741 287.896C63.6643 287.804 63.5898 287.677 63.5634 287.536L63.3194 286.226C63.71 286.169 64.0941 286.073 64.4664 285.942L64.5152 285.966ZM82.1829 256.439C82.7035 256.593 83.9317 256.951 85.705 257.439C84.8916 258.017 84.1514 259.066 83.1427 261.669C83.0207 261.97 81.9714 263.581 80.7756 265.37C65.5726 268.624 53.8348 276.571 50.8496 284.941L50.4591 285.039C40.2668 287.658 39.8845 287.861 39.7544 287.926L39.2582 288.187C38.5171 288.472 37.8459 288.913 37.2897 289.48C36.9095 289.565 36.566 289.768 36.3087 290.06C36.0514 290.353 35.8936 290.719 35.858 291.107C35.858 291.188 35.858 291.286 35.858 291.392C35.7898 291.733 35.8028 292.085 35.8961 292.42C35.9893 292.755 36.1602 293.063 36.3949 293.32C37.2522 293.978 38.3172 294.307 39.3965 294.247H39.6649C40.2262 294.247 43.0325 294.043 43.1301 292.539C43.1705 291.871 43.1046 291.201 42.9349 290.554C42.8926 290.427 42.8232 290.31 42.7315 290.212C43.8459 289.895 45.9853 289.293 50.1581 288.146C50.0658 289.137 50.1124 290.137 50.2964 291.115C52.3137 301.747 69.9326 307.343 89.6501 303.609C109.368 299.876 123.725 288.219 121.707 277.58C120.349 270.413 111.897 265.533 100.501 264.256C101.341 263.304 102.285 262.45 103.316 261.71C112.987 263.727 126.995 266.102 139.92 266.216C137.83 269.974 128.15 285.958 99.8668 316.478C68.5335 312.11 39.673 302.454 24.1772 291.164C30.3186 287.56 69.8431 264.646 82.1829 256.439ZM105.772 270.413C105.785 270.335 105.813 270.259 105.856 270.191C105.898 270.124 105.953 270.065 106.018 270.019C106.083 269.973 106.157 269.94 106.235 269.922C106.313 269.905 106.393 269.903 106.472 269.917C111.165 270.731 115.224 273.984 115.525 277.238C115.541 277.399 115.493 277.559 115.391 277.684C115.289 277.809 115.141 277.889 114.98 277.905H114.915C114.764 277.906 114.618 277.849 114.506 277.746C114.394 277.644 114.326 277.503 114.313 277.352C114.086 275.001 110.799 271.943 106.269 271.137C106.187 271.125 106.109 271.096 106.04 271.052C105.97 271.008 105.91 270.951 105.864 270.883C105.817 270.815 105.785 270.738 105.769 270.658C105.754 270.577 105.755 270.494 105.772 270.413ZM325.707 316.706C293.805 324.026 221.751 336.35 151.154 336.35H150.104C95.7021 336.26 56.1938 326.874 25.7797 306.814C24.5433 302.072 23.826 297.209 23.6403 292.311C39.5429 303.772 67.7038 313.192 99.452 317.633L99.5496 318.894C99.5629 319.034 99.6231 319.166 99.7205 319.268C99.818 319.37 99.9469 319.436 100.086 319.455C121.067 321.928 142.172 323.194 163.298 323.246C188.213 323.246 209.029 321.35 228.543 319.252C228.699 319.233 228.841 319.157 228.942 319.038C229.043 318.918 229.096 318.765 229.088 318.609L229.039 317.714C236.775 316.795 308.666 308.1 327.822 299.469C327.44 304.569 326.212 313.688 325.732 316.706H325.707Z" fill="black"/>
<path d="M105.244 344.794C104.178 344.362 101.006 343.679 96.6131 342.736C87.1448 340.694 72.8447 337.619 64.5802 333.918C64.5068 333.883 64.4272 333.864 64.346 333.86C64.2649 333.857 64.1839 333.87 64.1078 333.898C64.0317 333.926 63.962 333.97 63.9028 334.025C63.8436 334.081 63.7961 334.148 63.7631 334.222C63.7301 334.296 63.7122 334.376 63.7105 334.457C63.7088 334.538 63.7233 334.619 63.7532 334.695C63.7831 334.77 63.8277 334.839 63.8846 334.897C63.9414 334.955 64.0092 335.001 64.0841 335.032C72.4624 338.782 86.8601 341.881 96.3609 343.931C100.526 344.826 103.82 345.558 104.796 345.924C104.871 345.958 104.952 345.977 105.035 345.979C105.117 345.981 105.199 345.966 105.275 345.935C105.352 345.905 105.421 345.859 105.48 345.801C105.538 345.743 105.584 345.673 105.615 345.597C105.645 345.52 105.66 345.439 105.659 345.356C105.657 345.274 105.639 345.193 105.605 345.118C105.571 345.043 105.522 344.975 105.461 344.92C105.401 344.864 105.329 344.821 105.252 344.794H105.244Z" fill="black"/>
<path d="M79.8076 344.761L79.3847 344.68C77.5707 344.33 72.0638 343.256 67.9966 340.881C67.8575 340.798 67.691 340.773 67.5339 340.813C67.3768 340.853 67.2419 340.953 67.1588 341.092C67.0757 341.231 67.0514 341.398 67.091 341.555C67.1307 341.712 67.2312 341.847 67.3703 341.93C71.5676 344.419 77.2535 345.517 79.1243 345.875L79.5311 345.957H79.6531C79.8013 345.952 79.9429 345.895 80.0514 345.794C80.16 345.693 80.2282 345.556 80.2431 345.408C80.2581 345.261 80.2188 345.113 80.1327 344.992C80.0465 344.872 79.9194 344.786 79.7751 344.753L79.8076 344.761Z" fill="black"/>
<path d="M58.9025 223.592C61.5543 225.463 65.41 226.407 70.2905 226.407C73.848 226.365 77.3917 225.957 80.8651 225.187C88.9994 223.47 97.4835 219.729 106.488 215.759C114.793 212.099 123.383 208.316 131.94 206.087C132.02 206.07 132.096 206.036 132.163 205.988C132.229 205.94 132.286 205.88 132.329 205.81C132.371 205.74 132.399 205.662 132.411 205.58C132.423 205.499 132.419 205.417 132.398 205.337C132.377 205.258 132.34 205.184 132.29 205.119C132.24 205.054 132.177 205 132.106 204.96C132.034 204.92 131.955 204.894 131.874 204.885C131.792 204.877 131.71 204.884 131.631 204.908C122.976 207.161 114.338 210.968 105.992 214.669C97.0442 218.606 88.609 222.332 80.613 224.023C71.1853 226.016 63.7343 225.52 59.6346 222.624C58.784 222.066 58.0629 221.333 57.5199 220.473C56.9769 219.612 56.6246 218.646 56.4866 217.638C56.4759 217.559 56.4497 217.482 56.4094 217.412C56.3691 217.343 56.3154 217.282 56.2516 217.233C56.1878 217.185 56.115 217.149 56.0374 217.128C55.9598 217.108 55.8789 217.103 55.7993 217.113C55.7197 217.124 55.643 217.15 55.5736 217.191C55.5041 217.231 55.4433 217.285 55.3946 217.348C55.3459 217.412 55.3102 217.485 55.2896 217.563C55.269 217.64 55.2639 217.721 55.2746 217.801C55.4399 218.966 55.8482 220.084 56.4732 221.082C57.0982 222.08 57.9258 222.935 58.9025 223.592Z" fill="black"/>
<path d="M159.329 232.288C159.335 232.208 159.326 232.128 159.301 232.051C159.276 231.975 159.236 231.904 159.184 231.843C159.079 231.719 158.929 231.642 158.767 231.629C158.605 231.616 158.445 231.668 158.322 231.774C158.198 231.879 158.121 232.029 158.108 232.191C157.637 238.015 152.414 242.22 147.745 244.213C147.616 244.268 147.51 244.366 147.445 244.49C147.379 244.614 147.359 244.757 147.386 244.895C147.414 245.032 147.488 245.156 147.597 245.245C147.705 245.335 147.841 245.384 147.981 245.384C148.062 245.384 148.143 245.368 148.217 245.336C153.26 243.205 158.816 238.657 159.329 232.288Z" fill="black"/>
<path d="M160.321 237.925C160.167 237.877 160 237.891 159.856 237.966C159.713 238.041 159.605 238.169 159.556 238.324C158.743 240.951 156.726 243.115 153.415 244.945C153.338 244.979 153.269 245.029 153.212 245.092C153.155 245.154 153.112 245.228 153.085 245.308C153.058 245.388 153.048 245.472 153.056 245.556C153.063 245.64 153.088 245.722 153.129 245.796C153.169 245.87 153.225 245.935 153.292 245.986C153.359 246.037 153.436 246.074 153.518 246.094C153.6 246.115 153.685 246.118 153.768 246.103C153.851 246.089 153.93 246.057 154.001 246.01C157.604 244.026 159.8 241.626 160.72 238.69C160.768 238.535 160.753 238.368 160.678 238.225C160.604 238.081 160.475 237.974 160.321 237.925Z" fill="black"/>
<path d="M24.5514 266.663C24.5855 266.505 24.556 266.34 24.4693 266.203C24.3826 266.066 24.2455 265.968 24.0877 265.931C23.5997 265.818 22.9896 266.143 21.2244 267.176C20.0124 267.884 18.2392 268.925 17.3851 269.039C17.5561 268.008 17.8285 266.998 18.1985 266.021C19.0119 263.581 19.8253 261.083 18.898 259.904C17.8406 258.505 15.4898 259.684 13.0088 260.937C11.4552 261.75 9.69815 262.604 8.7627 262.523C8.72115 262.527 8.67945 262.518 8.64216 262.5C8.60487 262.481 8.5734 262.453 8.5512 262.417C8.07128 261.702 8.92538 258.928 9.49478 257.089C9.92168 255.94 10.1952 254.739 10.3082 253.518C10.3143 253.292 10.2666 253.066 10.169 252.861C10.0715 252.656 9.92686 252.477 9.74695 252.339C8.73016 251.574 6.66405 252.103 3.53234 252.9C2.58876 253.144 1.57198 253.405 0.514526 253.64C0.432101 253.654 0.353225 253.683 0.282795 253.728C0.212364 253.773 0.151876 253.832 0.105056 253.901C0.0582357 253.97 0.0260884 254.048 0.0106007 254.13C-0.00488696 254.212 -0.00339204 254.296 0.015007 254.377C0.033406 254.459 0.0683157 254.536 0.117567 254.603C0.166818 254.67 0.22937 254.727 0.301351 254.769C0.373331 254.811 0.45321 254.838 0.536048 254.849C0.618887 254.859 0.702913 254.852 0.782947 254.828C1.85667 254.584 2.8816 254.324 3.83331 254.08C6.00517 253.527 8.46173 252.9 9.01486 253.315C9.01486 253.315 9.08807 253.372 9.0962 253.551C8.93649 254.637 8.66386 255.703 8.28277 256.732C7.34733 259.757 6.73725 261.986 7.46934 263.101C7.59518 263.286 7.76172 263.44 7.95626 263.552C8.1508 263.663 8.3682 263.729 8.59188 263.743C9.88523 263.857 11.6341 262.93 13.4725 262.027C15.0342 261.213 17.4013 260.05 17.8487 260.644C18.2961 261.238 17.5152 263.898 16.9539 265.647C16.2137 267.932 15.8477 269.161 16.3113 269.852C16.3955 269.972 16.5058 270.072 16.634 270.144C16.7622 270.216 16.9049 270.258 17.0515 270.267H17.1736C18.2148 270.267 19.744 269.454 21.7776 268.233C22.4333 267.813 23.1215 267.446 23.8356 267.135C23.9925 267.162 24.1539 267.129 24.2868 267.041C24.4198 266.953 24.5144 266.818 24.5514 266.663Z" fill="black"/>
<path d="M152.479 309.621C152.536 309.629 152.594 309.629 152.65 309.621C152.782 309.621 152.911 309.578 153.016 309.499C153.122 309.419 153.199 309.308 153.236 309.181L156.815 297.086C157.938 296.964 159.109 295.638 159.703 293.694C160.297 291.75 160.077 289.887 159.15 289.195L162.859 276.652C162.905 276.497 162.888 276.33 162.811 276.187C162.734 276.044 162.603 275.938 162.448 275.892C162.293 275.845 162.125 275.863 161.983 275.94C161.84 276.017 161.734 276.147 161.687 276.303L157.946 288.943C156.88 289.163 155.79 290.448 155.221 292.311C154.915 293.23 154.815 294.204 154.928 295.166C154.985 295.744 155.241 296.284 155.652 296.695L152.065 308.832C152.037 308.911 152.026 308.994 152.032 309.078C152.039 309.161 152.062 309.242 152.101 309.316C152.14 309.39 152.193 309.455 152.258 309.508C152.324 309.56 152.399 309.599 152.479 309.621Z" fill="black"/>
<path d="M120.715 309.621C124.961 309.97 129.02 310.149 133.03 310.149C134.259 310.149 135.471 310.149 136.707 310.101C136.818 310.097 136.926 310.063 137.019 310.003C137.112 309.943 137.187 309.859 137.236 309.759C138.705 306.771 140.061 303.994 141.303 301.429C141.353 301.338 141.379 301.236 141.379 301.132C141.379 301.029 141.353 300.927 141.303 300.836C141.249 300.746 141.173 300.672 141.081 300.622C140.99 300.572 140.887 300.548 140.782 300.551C137.643 300.6 131.664 300.632 126.897 300.226C126.792 300.219 126.688 300.238 126.592 300.282C126.497 300.326 126.415 300.393 126.352 300.478C123.285 304.724 120.959 307.799 120.325 308.612C120.257 308.698 120.213 308.801 120.199 308.91C120.185 309.019 120.2 309.129 120.243 309.23C120.282 309.33 120.346 309.419 120.428 309.487C120.511 309.555 120.61 309.601 120.715 309.621ZM127.1 301.486C131.387 301.828 136.536 301.836 139.774 301.804C138.689 304.022 137.534 306.389 136.308 308.905C131.511 309.016 126.711 308.883 121.927 308.506C122.944 307.18 124.807 304.659 127.1 301.486Z" fill="black"/>
<path d="M128.906 298.46C132.16 298.713 135.894 298.778 138.855 298.778C140.148 298.778 141.295 298.778 142.198 298.778C142.312 298.775 142.423 298.742 142.52 298.68C142.616 298.618 142.693 298.531 142.743 298.428C143.841 296.11 144.825 293.987 145.712 292.042C145.756 291.949 145.775 291.847 145.768 291.744C145.761 291.642 145.727 291.543 145.671 291.457C145.618 291.367 145.542 291.293 145.45 291.245C145.358 291.196 145.254 291.173 145.15 291.18C142.637 291.221 137.773 291.253 133.396 290.977C133.29 290.967 133.182 290.988 133.086 291.035C132.99 291.082 132.909 291.155 132.851 291.245C131.485 293.238 130.004 295.353 128.459 297.517C128.397 297.606 128.358 297.71 128.348 297.818C128.338 297.927 128.357 298.036 128.402 298.135C128.451 298.228 128.523 298.307 128.611 298.364C128.7 298.421 128.801 298.454 128.906 298.46Z" fill="black"/>
<path d="M135.056 289.627C138.375 289.895 142.247 289.96 145.216 289.96H146.289C146.407 289.962 146.522 289.929 146.62 289.865C146.718 289.801 146.796 289.71 146.842 289.602C147.745 287.618 148.526 285.852 149.185 284.331C149.226 284.238 149.242 284.137 149.234 284.036C149.225 283.934 149.192 283.837 149.136 283.752C149.08 283.667 149.004 283.598 148.915 283.55C148.825 283.502 148.725 283.477 148.624 283.477C144.557 283.477 141.303 283.437 138.521 283.266C138.412 283.261 138.304 283.285 138.207 283.335C138.11 283.385 138.027 283.459 137.968 283.55C136.919 285.177 135.788 286.918 134.6 288.675C134.541 288.763 134.505 288.864 134.496 288.97C134.488 289.075 134.507 289.181 134.551 289.277C134.598 289.374 134.669 289.458 134.757 289.519C134.846 289.58 134.949 289.617 135.056 289.627ZM138.806 284.502C141.303 284.649 144.223 284.697 147.688 284.706C147.146 285.915 146.55 287.271 145.899 288.773C143.174 288.773 139.489 288.773 136.195 288.521C137.073 287.13 137.952 285.796 138.773 284.502H138.806Z" fill="black"/>
<path d="M140.018 281.899C142.848 282.054 145.769 282.086 147.9 282.086H149.698C149.816 282.086 149.932 282.05 150.031 281.983C150.129 281.916 150.206 281.822 150.251 281.712C151.699 278.304 152.333 276.596 152.333 276.579C152.369 276.489 152.382 276.391 152.37 276.295C152.359 276.198 152.324 276.106 152.268 276.026C152.214 275.946 152.141 275.88 152.056 275.833C151.972 275.786 151.877 275.761 151.78 275.758L142.995 275.522C142.882 275.523 142.772 275.554 142.675 275.611C142.578 275.668 142.497 275.749 142.442 275.847C141.628 277.352 140.668 279.101 139.513 280.98C139.46 281.071 139.431 281.175 139.431 281.281C139.431 281.387 139.46 281.491 139.513 281.582C139.565 281.673 139.637 281.749 139.725 281.804C139.813 281.86 139.914 281.892 140.018 281.899ZM143.361 276.742L150.901 276.945C150.6 277.702 150.088 279.012 149.275 280.858C147.396 280.858 144.239 280.858 141.075 280.728C141.962 279.28 142.718 277.946 143.361 276.742Z" fill="black"/>
<path d="M169.22 310.646C169.339 310.658 169.459 310.658 169.578 310.646C169.918 310.619 170.247 310.516 170.543 310.346C170.838 310.176 171.092 309.942 171.286 309.662C171.877 308.896 172.293 308.01 172.506 307.067C172.897 305.79 172.802 304.413 172.238 303.203C172.081 302.924 171.847 302.698 171.563 302.552L176.777 276.026C176.796 275.946 176.8 275.863 176.786 275.781C176.773 275.7 176.743 275.622 176.699 275.552C176.655 275.483 176.597 275.423 176.528 275.376C176.46 275.33 176.383 275.298 176.302 275.282C176.221 275.266 176.138 275.266 176.057 275.283C175.977 275.301 175.9 275.334 175.833 275.382C175.765 275.429 175.708 275.49 175.665 275.56C175.622 275.63 175.593 275.709 175.581 275.79L170.334 302.471C169.309 302.812 168.366 304.155 167.894 305.952C167.381 308.328 167.935 310.329 169.22 310.646ZM169.122 306.286C169.537 304.586 170.416 303.642 170.928 303.642C171.043 303.687 171.136 303.774 171.188 303.886C171.415 304.34 171.522 304.844 171.497 305.35C171.493 305.844 171.43 306.336 171.31 306.815C171.14 307.581 170.807 308.302 170.334 308.929C170.025 309.304 169.7 309.507 169.521 309.458C169.09 309.352 168.716 307.994 169.138 306.286H169.122Z" fill="black"/>
<path d="M187.311 288.472L186.302 309.003C186.298 309.083 186.309 309.163 186.336 309.239C186.362 309.314 186.404 309.384 186.457 309.444C186.511 309.503 186.576 309.552 186.648 309.587C186.721 309.621 186.799 309.641 186.879 309.645C187.036 309.645 187.186 309.586 187.3 309.478C187.413 309.371 187.481 309.224 187.489 309.068L188.498 288.341C189.442 287.837 190.174 286.389 190.336 284.535C190.507 282.485 189.914 280.793 188.897 280.289L189.141 275.262C189.145 275.181 189.134 275.101 189.107 275.025C189.08 274.95 189.039 274.88 188.985 274.82C188.932 274.761 188.867 274.712 188.794 274.678C188.722 274.643 188.643 274.623 188.563 274.619C188.402 274.614 188.246 274.672 188.126 274.779C188.007 274.887 187.933 275.036 187.921 275.196L187.677 280.24C186.644 280.63 185.83 282.159 185.659 284.128C185.554 285.092 185.665 286.067 185.985 286.983C186.079 287.315 186.247 287.622 186.477 287.879C186.706 288.137 186.991 288.34 187.311 288.472Z" fill="black"/>
<path d="M200.301 290.912L200.879 308.62C200.883 308.779 200.949 308.93 201.063 309.041C201.177 309.152 201.33 309.214 201.489 309.214C201.569 309.212 201.648 309.194 201.721 309.162C201.794 309.129 201.86 309.082 201.915 309.024C201.97 308.966 202.014 308.898 202.042 308.823C202.071 308.748 202.085 308.668 202.082 308.588L201.505 290.815C202.481 290.31 203.132 288.74 203.132 286.747C203.132 284.616 202.318 282.957 201.228 282.607L200.968 274.473C200.964 274.314 200.898 274.163 200.784 274.052C200.67 273.941 200.517 273.879 200.358 273.879C200.278 273.881 200.199 273.899 200.126 273.932C200.052 273.964 199.986 274.011 199.931 274.069C199.876 274.127 199.833 274.196 199.804 274.271C199.776 274.345 199.762 274.425 199.764 274.505L200.033 282.762C199.097 283.307 198.455 284.844 198.455 286.756C198.503 288.838 199.219 290.481 200.301 290.912Z" fill="black"/>
<path d="M210.566 294.434C210.819 296.5 211.762 298.03 212.901 298.306L214.072 307.823C214.09 307.971 214.161 308.107 214.272 308.205C214.383 308.304 214.526 308.359 214.674 308.36H214.772C214.852 308.35 214.928 308.324 214.998 308.285C215.068 308.245 215.129 308.192 215.178 308.128C215.227 308.065 215.263 307.992 215.284 307.915C215.305 307.837 215.311 307.756 215.301 307.677L214.113 298.062C215.008 297.436 215.48 295.793 215.244 293.873C215.008 291.953 214.154 290.432 213.121 290.05L210.998 272.846C210.978 272.685 210.896 272.539 210.768 272.439C210.641 272.339 210.479 272.294 210.318 272.313C210.158 272.332 210.011 272.415 209.911 272.542C209.811 272.67 209.766 272.831 209.786 272.992L211.901 290.123C210.884 290.66 210.331 292.368 210.566 294.434ZM212.478 291.18H212.576C213.031 291.18 213.82 292.287 214.024 294.027C214.227 295.768 213.731 297.021 213.291 297.127C212.852 297.184 212.031 296.077 211.811 294.288C211.591 292.498 212.104 291.229 212.478 291.18Z" fill="black"/>
<path d="M299.548 186.402C299.449 186.274 299.304 186.19 299.144 186.169C298.984 186.148 298.822 186.191 298.693 186.289C296.711 187.744 294.395 188.681 291.958 189.014C291.807 189.028 291.666 189.098 291.563 189.211C291.461 189.324 291.405 189.471 291.405 189.624C291.405 189.786 291.682 193.691 291.877 196.383C291.196 196.318 290.509 196.396 289.86 196.613C289.211 196.83 288.615 197.182 288.111 197.644C286.248 199.108 285.5 201.028 286.354 202.126C286.545 202.35 286.786 202.525 287.057 202.64C287.328 202.754 287.622 202.804 287.916 202.785C289.097 202.705 290.221 202.246 291.12 201.475C291.693 201.089 292.177 200.585 292.54 199.997C292.903 199.41 293.137 198.752 293.227 198.067C293.238 197.97 293.238 197.871 293.227 197.774V197.725C293.121 196.245 292.991 194.415 292.877 192.845C295.182 192.562 297.378 191.703 299.263 190.348C299.326 190.298 299.38 190.237 299.42 190.168C299.46 190.098 299.485 190.021 299.496 189.941C299.506 189.862 299.5 189.781 299.479 189.703C299.458 189.626 299.422 189.553 299.373 189.489C299.324 189.426 299.262 189.373 299.193 189.333C299.123 189.293 299.046 189.267 298.966 189.257C298.887 189.247 298.806 189.252 298.728 189.273C298.651 189.294 298.578 189.33 298.515 189.38C296.831 190.586 294.875 191.357 292.821 191.625C292.78 191.015 292.739 190.502 292.715 190.152C295.169 189.737 297.491 188.748 299.491 187.265C299.551 187.212 299.601 187.148 299.636 187.076C299.672 187.004 299.693 186.925 299.698 186.845C299.703 186.765 299.693 186.685 299.667 186.609C299.641 186.533 299.601 186.463 299.548 186.402Z" fill="black"/>
<path d="M48.2059 202.834C46.9106 203.429 45.8513 204.439 45.1962 205.705C44.6128 206.675 44.2619 207.766 44.1713 208.894C44.0893 209.356 44.1424 209.832 44.3242 210.265C44.506 210.698 44.8087 211.069 45.1962 211.334C45.4813 211.496 45.8038 211.58 46.1316 211.578C46.716 211.548 47.2799 211.354 47.7585 211.017C48.6864 210.389 49.4551 209.554 50.0036 208.577C50.6357 207.551 50.9942 206.38 51.0448 205.177C51.0818 204.515 50.8667 203.864 50.4428 203.354C50.4207 203.318 50.3933 203.285 50.3615 203.257L50.2801 203.184L41.4056 195.114C43.1912 194.944 44.907 194.335 46.4001 193.341C48.7834 191.999 50.5079 191.023 53.2492 193.878C53.3634 193.961 53.5031 194.002 53.6442 193.994C53.7854 193.986 53.9193 193.929 54.023 193.833C54.1268 193.737 54.1939 193.607 54.213 193.467C54.2321 193.327 54.2019 193.185 54.1277 193.065C50.7357 189.526 48.2303 190.942 45.8063 192.308C44.0411 193.3 42.2191 194.325 39.7788 193.772C39.6467 193.741 39.5082 193.755 39.385 193.812C39.2618 193.869 39.161 193.965 39.0985 194.085C39.036 194.205 39.0153 194.343 39.0398 194.477C39.0643 194.61 39.1326 194.731 39.2338 194.822L48.2059 202.834Z" fill="black"/>
<path d="M227.787 78.1759C228.008 78.1729 228.228 78.1511 228.446 78.1109C229.382 77.8994 230.256 77.4733 231 76.8663C232.074 76.1234 232.822 74.9966 233.09 73.7184C233.09 73.7184 233.554 68.9028 233.904 65.3888H234.481C236.692 65.3829 238.888 65.0288 240.989 64.3395L241.078 69.2201C240.653 69.1214 240.21 69.1214 239.785 69.2201C238.845 69.4281 237.967 69.8544 237.223 70.4646C235.368 71.9288 234.611 73.8485 235.466 74.9466C235.658 75.1687 235.899 75.3435 236.17 75.4578C236.441 75.572 236.734 75.6226 237.027 75.6055C238.21 75.5289 239.335 75.0692 240.232 74.2959C241.664 73.1734 242.429 71.7824 242.331 70.7005L242.128 60.2805C242.121 60.2187 242.104 60.1583 242.079 60.1015C242.082 60.0664 242.082 60.031 242.079 59.9958C242.047 59.9501 242.008 59.909 241.965 59.8738C241.936 59.8374 241.904 59.8046 241.867 59.7762C241.779 59.7295 241.682 59.7018 241.583 59.6948C241.518 59.7008 241.455 59.7172 241.395 59.7436C241.363 59.7409 241.33 59.7409 241.298 59.7436C240.195 60.3178 239.022 60.7444 237.808 61.0126C236.497 61.3113 235.159 61.4694 233.814 61.4844H233.684C233.63 61.4766 233.575 61.4766 233.521 61.4844C233.41 61.5173 233.31 61.5815 233.233 61.6694C233.157 61.7574 233.107 61.8653 233.09 61.9806C233.09 61.9806 233.09 61.9806 233.09 62.0375C233.09 62.0944 232.976 63.1763 232.806 64.6893C232.562 66.975 232.261 69.9928 232.082 71.8719C231.604 71.7034 231.088 71.6724 230.593 71.7824C229.654 71.9971 228.777 72.4258 228.031 73.0351C226.168 74.4911 225.42 76.4189 226.274 77.5089C226.459 77.7277 226.691 77.9014 226.953 78.017C227.215 78.1325 227.501 78.1869 227.787 78.1759Z" fill="black"/>
<path d="M200.236 134.945C200.213 134.868 200.174 134.796 200.123 134.734C200.072 134.672 200.009 134.62 199.938 134.582C199.867 134.545 199.789 134.521 199.709 134.514C199.629 134.506 199.548 134.515 199.471 134.538C199.471 134.538 198.764 134.75 197.397 135.352C197.12 135.494 196.813 135.568 196.502 135.568C196.191 135.568 195.884 135.494 195.608 135.352C194.794 134.88 194.192 133.513 193.907 131.407C193.184 126.079 192.679 123.102 189.987 118.986C189.46 118.06 188.704 117.287 187.79 116.741C186.876 116.195 185.837 115.895 184.773 115.87C182.544 115.87 180.421 117.212 178.957 119.522C178.914 119.59 178.885 119.666 178.871 119.745C178.858 119.824 178.86 119.905 178.878 119.983C178.896 120.061 178.929 120.135 178.975 120.2C179.021 120.266 179.08 120.322 179.148 120.364C179.216 120.407 179.291 120.436 179.37 120.45C179.449 120.463 179.53 120.461 179.608 120.443C179.686 120.425 179.76 120.392 179.826 120.346C179.891 120.3 179.947 120.241 179.99 120.173C180.47 119.303 181.16 118.565 181.996 118.027C182.832 117.489 183.789 117.167 184.781 117.09C185.634 117.13 186.463 117.386 187.19 117.834C187.918 118.282 188.519 118.908 188.937 119.653C191.483 123.549 191.971 126.412 192.671 131.569C193.021 134.132 193.769 135.718 194.965 136.45C195.385 136.693 195.862 136.819 196.348 136.816C196.858 136.805 197.361 136.694 197.828 136.491C199.138 135.954 199.789 135.75 199.797 135.75C199.881 135.731 199.961 135.694 200.03 135.642C200.1 135.59 200.157 135.523 200.199 135.447C200.24 135.371 200.265 135.287 200.272 135.2C200.278 135.114 200.266 135.027 200.236 134.945Z" fill="black"/>
<path d="M190.434 125.127C190.354 125.131 190.275 125.151 190.203 125.186C190.131 125.22 190.066 125.269 190.012 125.328C189.958 125.388 189.917 125.458 189.89 125.534C189.864 125.609 189.852 125.689 189.857 125.77C189.901 126.147 189.856 126.53 189.726 126.887C189.596 127.245 189.385 127.567 189.108 127.828C188.592 128.198 188.003 128.454 187.381 128.579C186.758 128.704 186.115 128.695 185.497 128.552C185.344 128.543 185.193 128.592 185.075 128.689C184.956 128.785 184.879 128.923 184.857 129.075C184.836 129.226 184.872 129.38 184.959 129.507C185.046 129.633 185.177 129.721 185.326 129.755C185.733 129.814 186.143 129.844 186.554 129.845C187.779 129.906 188.982 129.509 189.93 128.73C190.337 128.347 190.653 127.877 190.851 127.354C191.05 126.831 191.127 126.27 191.077 125.713C191.068 125.55 190.996 125.397 190.876 125.288C190.755 125.178 190.597 125.12 190.434 125.127Z" fill="black"/>
<path d="M202.172 122.264C202.889 122.266 203.597 122.099 204.238 121.776C205.036 121.355 205.702 120.721 206.162 119.944C206.621 119.167 206.856 118.278 206.841 117.375C206.841 117.213 206.777 117.058 206.662 116.944C206.548 116.829 206.393 116.765 206.231 116.765C206.069 116.765 205.914 116.829 205.8 116.944C205.685 117.058 205.621 117.213 205.621 117.375C205.639 118.052 205.468 118.72 205.127 119.304C204.787 119.889 204.29 120.367 203.693 120.686C203.023 120.993 202.279 121.102 201.548 121.001C200.818 120.9 200.131 120.593 199.569 120.116C199.438 120.02 199.275 119.98 199.115 120.005C198.955 120.029 198.811 120.116 198.715 120.247C198.619 120.377 198.579 120.54 198.603 120.701C198.627 120.861 198.714 121.005 198.845 121.101C199.801 121.834 200.967 122.241 202.172 122.264Z" fill="black"/>
<path d="M208.785 130.764C208.648 130.761 208.514 130.805 208.405 130.887C208.296 130.97 208.218 131.087 208.183 131.219C207.919 132.431 207.412 133.576 206.692 134.586C205.972 135.596 205.054 136.448 203.994 137.092C203.271 137.534 202.467 137.829 201.63 137.96C200.792 138.092 199.937 138.056 199.113 137.857C198.995 137.836 198.874 137.851 198.764 137.899C198.654 137.947 198.561 138.026 198.496 138.127C198.431 138.227 198.397 138.345 198.398 138.465C198.399 138.585 198.436 138.701 198.503 138.8C198.666 139.012 201.944 143.193 205.678 143.193C206.423 143.195 207.159 143.022 207.825 142.689C211.372 140.94 209.59 132.212 209.379 131.219C209.343 131.089 209.266 130.974 209.159 130.891C209.051 130.809 208.92 130.764 208.785 130.764ZM207.28 141.623C204.767 142.859 202.017 140.72 200.545 139.264C201.976 139.265 203.381 138.88 204.612 138.15C206.353 137.127 207.735 135.59 208.565 133.749C208.972 136.978 208.907 140.818 207.28 141.623Z" fill="black"/>
<path d="M211.396 119.27C211.904 119.27 212.315 118.858 212.315 118.351C212.315 117.843 211.904 117.432 211.396 117.432C210.889 117.432 210.477 117.843 210.477 118.351C210.477 118.858 210.889 119.27 211.396 119.27Z" fill="black"/>
</svg>
